<svg width="24" height="24" viewBox="0 0 24 24" fill="none" xmlns="http://www.w3.org/2000/svg">
<path d="M12.65 4C12.65 3.64101 12.359 3.35 12 3.35C11.641 3.35 11.35 3.64101 11.35 4L12.65 4ZM11.5404 16.4596C11.7942 16.7135 12.2058 16.7135 12.4596 16.4596L16.5962 12.323C16.85 12.0692 16.85 11.6576 16.5962 11.4038C16.3424 11.15 15.9308 11.15 15.677 11.4038L12 15.0808L8.32305 11.4038C8.0692 11.15 7.65765 11.15 7.40381 11.4038C7.14997 11.6576 7.14997 12.0692 7.40381 12.323L11.5404 16.4596ZM11.35 4L11.35 16L12.65 16L12.65 4L11.35 4Z" fill="#333333"/>
<line x1="3.65" y1="19.35" x2="20.35" y2="19.35" stroke="#333333" stroke-width="1.3" stroke-linecap="round"/>
</svg>
