<svg width="36" height="36" viewBox="0 0 36 36" fill="none" xmlns="http://www.w3.org/2000/svg">
<path d="M5.50157 13.0862L5.50165 13.0862V13.0775C5.50165 9.49008 8.73142 6.49902 12.823 6.49902C14.6064 6.49902 16.2353 7.07159 17.5007 8.01729L17.8 8.24099L18.0993 8.01729C19.3647 7.07159 20.9936 6.49902 22.777 6.49902C26.8686 6.49902 30.0983 9.49008 30.0983 13.0775H30.0983L30.0984 13.0862C30.1434 15.6594 29.224 17.8912 27.2895 20.3651C25.3414 22.8563 22.3959 25.5534 18.434 29.0547C18.2905 29.1815 18.1453 29.293 17.983 29.4176C17.9669 29.43 17.9507 29.4424 17.9343 29.4551C17.858 29.5137 17.7416 29.5136 17.6656 29.4551C17.6492 29.4425 17.6331 29.4301 17.6171 29.4178C17.4549 29.2931 17.3098 29.1816 17.1662 29.0547C13.2041 25.5534 10.2587 22.8563 8.31053 20.3651C6.37597 17.8912 5.4566 15.6594 5.50157 13.0862Z" stroke="#333333"/>
</svg>
