<svg width="24" height="24" viewBox="0 0 24 24" fill="none" xmlns="http://www.w3.org/2000/svg">
<path fill-rule="evenodd" clip-rule="evenodd" d="M15.9211 9.36842C15.9211 10.3956 15.5227 11.3264 14.8692 12.0202C14.1932 12.7378 14.3757 13.8973 15.2339 14.375C17.2481 15.4962 18.6053 17.6432 18.6053 20.1053C18.6053 20.3305 18.5939 20.5531 18.5717 20.7725C18.5595 20.893 18.6526 21 18.7738 21H19.877C19.979 21 20.0649 20.9233 20.0738 20.8218C20.0946 20.5857 20.1053 20.3467 20.1053 20.1053C20.1053 17.6163 18.976 15.391 17.2019 13.9139L17.1923 13.9059C16.821 13.5977 16.4216 13.3223 15.9984 13.0839L15.9634 13.0644C15.9577 13.0612 15.9565 13.0535 15.961 13.0487L15.9885 13.0193C16.317 12.6654 16.5982 12.2671 16.8224 11.8345L16.8253 11.8288C17.206 11.0917 17.4211 10.2552 17.4211 9.36842C17.4211 6.40352 15.0175 4 12.0526 4C9.08773 4 6.68421 6.40352 6.68421 9.36842C6.68421 10.2552 6.89922 11.0917 7.27995 11.8288L7.28288 11.8345C7.50703 12.2671 7.78831 12.6654 8.11673 13.0193L8.14426 13.0487C8.14874 13.0535 8.14754 13.0612 8.14183 13.0644L8.10687 13.084C7.68371 13.3223 7.28426 13.5977 6.91294 13.9059L6.90337 13.9139C5.12925 15.391 4 17.6163 4 20.1053C4 20.3467 4.01063 20.5857 4.03144 20.8218C4.0404 20.9233 4.1263 21 4.22826 21H5.33141C5.45263 21 5.54574 20.893 5.53355 20.7724C5.51136 20.5531 5.5 20.3305 5.5 20.1053C5.5 17.6432 6.85718 15.4962 8.87137 14.375C9.72965 13.8973 9.91203 12.7378 9.23611 12.0202C8.58255 11.3264 8.18421 10.3956 8.18421 9.36842C8.18421 7.23195 9.91616 5.5 12.0526 5.5C14.1891 5.5 15.9211 7.23195 15.9211 9.36842Z" fill="#333333"/>
</svg>
