<svg width="25" height="7" viewBox="0 0 25 7" fill="none" xmlns="http://www.w3.org/2000/svg">
<path d="M5.8399 0.143066C5.86583 0.143066 5.8809 0.174163 5.8658 0.19652L2.88061 4.61775C2.87779 4.62192 2.87591 4.62671 2.8751 4.63177L2.52432 6.82369C2.52172 6.83994 2.50845 6.85182 2.49291 6.85182H1.32418C1.30446 6.85182 1.28947 6.83301 1.29277 6.81239L1.6415 4.63334C1.64247 4.62729 1.64186 4.62107 1.63975 4.61535L0.00271871 0.189187C-0.00547758 0.167026 0.00992896 0.143066 0.0323747 0.143066H1.23573C1.24888 0.143066 1.26069 0.151641 1.26544 0.164651L2.40197 3.27763C2.41115 3.30279 2.44308 3.30694 2.45772 3.28488L4.53376 0.157402C4.53973 0.148414 4.54945 0.143066 4.55981 0.143066H5.8399Z" fill="#333333"/>
<path d="M6.52541 0.171292C6.52797 0.155003 6.54126 0.143066 6.55683 0.143066H10.5969C10.6166 0.143066 10.6316 0.161844 10.6284 0.182451L10.4512 1.30028C10.4486 1.31655 10.4353 1.32847 10.4198 1.32847H7.60234C7.58674 1.32847 7.57344 1.34044 7.57091 1.35675L7.33571 2.86801C7.33251 2.88859 7.34748 2.9073 7.36714 2.9073H9.7682C9.78793 2.9073 9.80292 2.92613 9.7996 2.94676L9.62256 4.04926C9.61995 4.0655 9.60669 4.07737 9.59116 4.07737H7.16886C7.15321 4.07737 7.13988 4.08942 7.13741 4.10581L6.90192 5.66306C6.89881 5.68359 6.91377 5.70219 6.93337 5.70219H9.72954C9.74931 5.70219 9.76431 5.72109 9.76093 5.74174L9.58408 6.82381C9.58144 6.84 9.56819 6.85182 9.55269 6.85182H5.51236C5.49268 6.85182 5.4777 6.83308 5.48094 6.81248L6.52541 0.171292Z" fill="#333333"/>
<path d="M14.6797 1.99104C14.6642 2.00501 14.6404 2.00016 14.6303 1.98144C14.5139 1.76651 14.3356 1.58973 14.0954 1.45109C13.8449 1.30462 13.559 1.23139 13.2378 1.23139C12.9134 1.23139 12.6645 1.2944 12.4911 1.42044C12.3176 1.54647 12.2309 1.71338 12.2309 1.92117C12.2309 2.05401 12.2727 2.17324 12.3562 2.27883C12.4429 2.38443 12.5553 2.47299 12.6934 2.54453C12.8315 2.61606 12.9889 2.6927 13.1656 2.77445C13.3454 2.8528 13.5269 2.92774 13.71 2.99927C13.8963 3.0708 14.0777 3.16448 14.2544 3.28029C14.4343 3.3927 14.5932 3.51703 14.7314 3.65329C14.8695 3.78613 14.9803 3.95645 15.0638 4.16423C15.1505 4.37202 15.1939 4.60535 15.1939 4.86423C15.1939 5.52506 14.9642 6.04623 14.5049 6.42774C14.0488 6.80925 13.4434 7 12.6886 7C12.1073 7 11.5902 6.89611 11.1373 6.68832C10.6968 6.48143 10.3657 6.19771 10.144 5.83717C10.136 5.82401 10.1377 5.80668 10.1481 5.79549L11.0314 4.84411C11.046 4.8284 11.0707 4.83149 11.0818 4.85009C11.247 5.12562 11.471 5.34494 11.754 5.50803C12.0495 5.67835 12.3803 5.7635 12.7464 5.7635C13.0965 5.7635 13.3663 5.69197 13.5558 5.54891C13.7453 5.40243 13.8401 5.21509 13.8401 4.98686C13.8401 4.81655 13.7855 4.66667 13.6763 4.53723C13.5671 4.40779 13.4257 4.30049 13.2523 4.21533C13.0821 4.12676 12.891 4.04161 12.679 3.95985C12.4702 3.8747 12.2598 3.77932 12.0478 3.67372C11.8391 3.56813 11.648 3.44891 11.4745 3.31606C11.3043 3.18321 11.1646 3.00779 11.0554 2.78978C10.9462 2.56837 10.8916 2.3146 10.8916 2.02847C10.8916 1.40852 11.1148 0.916302 11.5613 0.551825C12.0109 0.183942 12.6035 0 13.339 0C13.869 0 14.3427 0.105596 14.7603 0.316788C15.1677 0.52286 15.4558 0.785686 15.6247 1.10527C15.6321 1.11916 15.6289 1.13656 15.6175 1.14686L14.6797 1.99104Z" fill="#333333"/>
<path d="M15.367 5.89334C15.3682 5.88539 15.3721 5.87818 15.378 5.87302L18.1151 3.44891C18.4266 3.17299 18.6515 2.92092 18.7896 2.6927C18.9309 2.46448 19.0015 2.22603 19.0015 1.97737C19.0015 1.74234 18.9277 1.55499 18.7799 1.41533C18.6322 1.27226 18.4266 1.20073 18.1633 1.20073C17.6355 1.20073 17.1809 1.52222 16.7993 2.1652C16.7892 2.18213 16.7675 2.18653 16.7525 2.17438L15.9649 1.53589C15.952 1.52543 15.9487 1.5062 15.9571 1.49152C16.5313 0.497172 17.3486 0 18.409 0C18.7141 0 18.9855 0.0442823 19.2232 0.132847C19.4641 0.221411 19.6568 0.342336 19.8013 0.49562C19.949 0.645499 20.0615 0.817518 20.1385 1.01168C20.2156 1.20584 20.2542 1.41533 20.2542 1.64015C20.2542 2.13406 20.1369 2.58029 19.9025 2.97883C19.6712 3.37397 19.3243 3.7691 18.8618 4.16423L17.1201 5.66261C17.0968 5.68265 17.1102 5.72263 17.1402 5.72263H19.653C19.6727 5.72263 19.6876 5.74129 19.6845 5.76184L19.5214 6.82347C19.5189 6.83982 19.5056 6.85182 19.49 6.85182H15.2524C15.2327 6.85182 15.2178 6.83304 15.221 6.81243L15.367 5.89334Z" fill="#333333"/>
<path d="M24.9686 4.44526C24.9883 4.44526 25.0032 4.46395 25.0001 4.48452L24.8371 5.53593C24.8346 5.55225 24.8213 5.56423 24.8057 5.56423H23.9587C23.9431 5.56423 23.9299 5.5761 23.9273 5.59234L23.7291 6.82372C23.7265 6.83995 23.7133 6.85182 23.6977 6.85182H22.5676C22.5478 6.85182 22.5328 6.83299 22.5362 6.81236L22.7306 5.6037C22.7339 5.58307 22.719 5.56423 22.6992 5.56423H19.8072C19.7874 5.56423 19.7724 5.54523 19.7759 5.52453L19.9555 4.45497C19.9565 4.44863 19.9593 4.44274 19.9634 4.438L23.6862 0.153955C23.6923 0.147014 23.7008 0.143066 23.7097 0.143066H24.7421C24.7618 0.143066 24.7767 0.16183 24.7735 0.18243L24.1066 4.40589C24.1034 4.42649 24.1183 4.44526 24.138 4.44526H24.9686ZM21.2397 4.38857C21.2209 4.41022 21.2354 4.44526 21.2631 4.44526H22.8787C22.8942 4.44526 22.9075 4.43336 22.9101 4.41711L23.2731 2.14068C23.2784 2.10753 23.2398 2.08743 23.2183 2.11214L21.2397 4.38857Z" fill="#333333"/>
</svg>
