<svg width="46" height="11" viewBox="0 0 46 11" fill="none" xmlns="http://www.w3.org/2000/svg">
<path d="M7.6954 2.48308C7.6954 2.62718 7.57507 2.74399 7.42664 2.74399H5.05999C4.91156 2.74399 4.79124 2.8608 4.79124 3.0049V10.2202C4.79124 10.3643 4.67091 10.4811 4.52248 10.4811H3.15855C3.01012 10.4811 2.88979 10.3643 2.88979 10.2202V3.0049C2.88979 2.8608 2.76947 2.74399 2.62104 2.74399H0.269242C0.120813 2.74399 0.000488281 2.62718 0.000488281 2.48308V1.27433C0.000488281 1.13024 0.120813 1.01342 0.269242 1.01342H7.42664C7.57507 1.01342 7.6954 1.13024 7.6954 1.27433V2.48308Z" fill="#333333"/>
<path d="M8.81849 10.4811C8.67006 10.4811 8.54974 10.3643 8.54974 10.2202V1.27433C8.54974 1.13024 8.67006 1.01342 8.81849 1.01342H10.1824C10.3309 1.01342 10.4512 1.13024 10.4512 1.27433V10.2202C10.4512 10.3643 10.3309 10.4811 10.1824 10.4811H8.81849Z" fill="#333333"/>
<path d="M20.1842 1.94171C20.2898 2.03318 20.2946 2.1898 20.2013 2.29317L19.2813 3.31234C19.1836 3.42062 19.0145 3.43068 18.8965 3.34355C18.2767 2.88616 17.5711 2.65746 16.7796 2.65746C16.23 2.65746 15.7249 2.79687 15.2644 3.07568C14.8039 3.34969 14.4399 3.72465 14.1725 4.20055C13.9101 4.67646 13.7789 5.19563 13.7789 5.75807C13.7789 6.61854 14.076 7.34923 14.6702 7.95012C15.2644 8.5462 16.0071 8.84424 16.8984 8.84424C17.3243 8.84424 17.7328 8.76974 18.124 8.62071C18.4162 8.50579 18.6726 8.35866 18.893 8.17934C19.013 8.08165 19.1942 8.08255 19.2993 8.19536L20.2027 9.16529C20.2958 9.26528 20.2958 9.41844 20.1959 9.51204C19.3572 10.2975 18.2135 10.6902 16.7648 10.6902C15.8338 10.6902 14.9846 10.4691 14.2171 10.0268C13.4496 9.58455 12.848 8.98606 12.4122 8.23134C11.9765 7.47662 11.7586 6.65219 11.7586 5.75807C11.7586 4.86394 11.9814 4.03711 12.4271 3.27758C12.8727 2.51806 13.4793 1.91716 14.2468 1.47491C15.0193 1.03265 15.8586 0.811523 16.7648 0.811523C18.174 0.811523 19.3139 1.18825 20.1842 1.94171Z" fill="#333333"/>
<path d="M21.6239 10.4811C21.4755 10.4811 21.3551 10.3643 21.3551 10.2202V1.27433C21.3551 1.13024 21.4755 1.01342 21.6239 1.01342H22.9878C23.1363 1.01342 23.2566 1.13024 23.2566 1.27433V4.6535C23.2566 4.7976 23.3769 4.91441 23.5253 4.91441H24.0432C24.132 4.91441 24.215 4.8719 24.2651 4.80079L26.8532 1.12704C26.9033 1.05594 26.9863 1.01342 27.075 1.01342H28.5698C28.786 1.01342 28.9137 1.24867 28.7915 1.42182L25.9026 5.5144C25.839 5.6045 25.84 5.72352 25.905 5.81266L29.0097 10.0694C29.1358 10.2422 29.0085 10.4811 28.7904 10.4811H27.1407C27.0526 10.4811 26.9701 10.4391 26.9199 10.3689L24.3395 6.75719C24.2893 6.68691 24.2067 6.64498 24.1186 6.64498H23.5253C23.3769 6.64498 23.2566 6.76179 23.2566 6.90589V10.2202C23.2566 10.3643 23.1363 10.4811 22.9878 10.4811H21.6239Z" fill="#333333"/>
<path d="M30.4925 10.4811C30.3441 10.4811 30.2238 10.3643 30.2238 10.2202V1.27433C30.2238 1.13024 30.3441 1.01342 30.4925 1.01342H36.2684C36.4168 1.01342 36.5372 1.13024 36.5372 1.27433V2.48308C36.5372 2.62718 36.4168 2.74399 36.2684 2.74399H32.394C32.2455 2.74399 32.1252 2.8608 32.1252 3.0049V4.5814C32.1252 4.72549 32.2455 4.84231 32.394 4.84231H35.6594C35.8078 4.84231 35.9281 4.95912 35.9281 5.10321V6.31918C35.9281 6.46327 35.8078 6.58008 35.6594 6.58008H32.394C32.2455 6.58008 32.1252 6.6969 32.1252 6.84099V8.47518C32.1252 8.61927 32.2455 8.73609 32.394 8.73609H36.2684C36.4168 8.73609 36.5372 8.8529 36.5372 8.99699V10.2202C36.5372 10.3643 36.4168 10.4811 36.2684 10.4811H30.4925Z" fill="#333333"/>
<path d="M45.0297 2.48308C45.0297 2.62718 44.9094 2.74399 44.761 2.74399H42.3943C42.2459 2.74399 42.1256 2.8608 42.1256 3.0049V10.2202C42.1256 10.3643 42.0052 10.4811 41.8568 10.4811H40.4929C40.3444 10.4811 40.2241 10.3643 40.2241 10.2202V3.0049C40.2241 2.8608 40.1038 2.74399 39.9554 2.74399H37.6036C37.4551 2.74399 37.3348 2.62718 37.3348 2.48308V1.27433C37.3348 1.13024 37.4551 1.01342 37.6036 1.01342H44.761C44.9094 1.01342 45.0297 1.13024 45.0297 1.27433V2.48308Z" fill="#333333"/>
</svg>
