<svg width="48" height="24" viewBox="0 0 48 24" fill="none" xmlns="http://www.w3.org/2000/svg">
<path d="M16.8399 2.14307C16.8658 2.14307 16.8809 2.17416 16.8658 2.19652L13.8806 6.61775C13.8778 6.62192 13.8759 6.62671 13.8751 6.63177L13.5243 8.82369C13.5217 8.83994 13.5084 8.85182 13.4929 8.85182H12.3242C12.3045 8.85182 12.2895 8.83301 12.2928 8.81239L12.6415 6.63334C12.6425 6.62729 12.6419 6.62107 12.6397 6.61535L11.0027 2.18919C10.9945 2.16703 11.0099 2.14307 11.0324 2.14307H12.2357C12.2489 2.14307 12.2607 2.15164 12.2654 2.16465L13.402 5.27763C13.4112 5.30279 13.4431 5.30694 13.4577 5.28488L15.5338 2.1574C15.5397 2.14841 15.5494 2.14307 15.5598 2.14307H16.8399Z" fill="#333333"/>
<path d="M17.5254 2.17129C17.528 2.155 17.5413 2.14307 17.5568 2.14307H21.5969C21.6166 2.14307 21.6316 2.16184 21.6284 2.18245L21.4512 3.30028C21.4486 3.31655 21.4353 3.32847 21.4198 3.32847H18.6023C18.5867 3.32847 18.5734 3.34044 18.5709 3.35675L18.3357 4.86801C18.3325 4.88859 18.3475 4.9073 18.3671 4.9073H20.7682C20.7879 4.9073 20.8029 4.92613 20.7996 4.94676L20.6226 6.04926C20.62 6.0655 20.6067 6.07737 20.5912 6.07737H18.1689C18.1532 6.07737 18.1399 6.08942 18.1374 6.10581L17.9019 7.66306C17.8988 7.68359 17.9138 7.70219 17.9334 7.70219H20.7295C20.7493 7.70219 20.7643 7.72109 20.7609 7.74174L20.5841 8.82381C20.5814 8.84 20.5682 8.85182 20.5527 8.85182H16.5124C16.4927 8.85182 16.4777 8.83308 16.4809 8.81248L17.5254 2.17129Z" fill="#333333"/>
<path d="M25.6797 3.99104C25.6642 4.00501 25.6404 4.00016 25.6303 3.98144C25.5139 3.76651 25.3356 3.58973 25.0954 3.45109C24.8449 3.30462 24.559 3.23139 24.2378 3.23139C23.9134 3.23139 23.6645 3.2944 23.4911 3.42044C23.3176 3.54647 23.2309 3.71338 23.2309 3.92117C23.2309 4.05401 23.2727 4.17324 23.3562 4.27883C23.4429 4.38443 23.5553 4.47299 23.6934 4.54453C23.8315 4.61606 23.9889 4.6927 24.1656 4.77445C24.3454 4.8528 24.5269 4.92774 24.71 4.99927C24.8963 5.0708 25.0777 5.16448 25.2544 5.28029C25.4343 5.3927 25.5932 5.51703 25.7314 5.65328C25.8695 5.78613 25.9803 5.95645 26.0638 6.16423C26.1505 6.37202 26.1939 6.60535 26.1939 6.86423C26.1939 7.52506 25.9642 8.04623 25.5049 8.42774C25.0488 8.80925 24.4434 9 23.6886 9C23.1073 9 22.5902 8.89611 22.1373 8.68832C21.6968 8.48143 21.3657 8.19771 21.144 7.83717C21.136 7.82401 21.1377 7.80668 21.1481 7.79549L22.0314 6.84411C22.046 6.8284 22.0707 6.83149 22.0818 6.85009C22.247 7.12562 22.471 7.34494 22.754 7.50803C23.0495 7.67835 23.3803 7.7635 23.7464 7.7635C24.0965 7.7635 24.3663 7.69197 24.5558 7.54891C24.7453 7.40243 24.8401 7.21509 24.8401 6.98686C24.8401 6.81655 24.7855 6.66667 24.6763 6.53723C24.5671 6.40779 24.4257 6.30049 24.2523 6.21533C24.0821 6.12676 23.891 6.04161 23.679 5.95985C23.4702 5.8747 23.2598 5.77932 23.0478 5.67372C22.8391 5.56813 22.648 5.44891 22.4745 5.31606C22.3043 5.18321 22.1646 5.00779 22.0554 4.78978C21.9462 4.56837 21.8916 4.3146 21.8916 4.02847C21.8916 3.40852 22.1148 2.9163 22.5613 2.55182C23.0109 2.18394 23.6035 2 24.339 2C24.869 2 25.3427 2.1056 25.7603 2.31679C26.1677 2.52286 26.4558 2.78569 26.6247 3.10527C26.6321 3.11916 26.6289 3.13656 26.6175 3.14686L25.6797 3.99104Z" fill="#333333"/>
<path d="M26.367 7.89334C26.3682 7.88539 26.3721 7.87818 26.378 7.87302L29.1151 5.44891C29.4266 5.17299 29.6515 4.92092 29.7896 4.6927C29.9309 4.46448 30.0015 4.22603 30.0015 3.97737C30.0015 3.74234 29.9277 3.55499 29.7799 3.41533C29.6322 3.27226 29.4266 3.20073 29.1633 3.20073C28.6355 3.20073 28.1809 3.52222 27.7993 4.1652C27.7892 4.18213 27.7675 4.18653 27.7525 4.17438L26.9649 3.53589C26.952 3.52543 26.9487 3.5062 26.9571 3.49152C27.5313 2.49717 28.3486 2 29.409 2C29.7141 2 29.9855 2.04428 30.2232 2.13285C30.4641 2.22141 30.6568 2.34234 30.8013 2.49562C30.949 2.6455 31.0615 2.81752 31.1385 3.01168C31.2156 3.20584 31.2542 3.41533 31.2542 3.64015C31.2542 4.13406 31.1369 4.58029 30.9025 4.97883C30.6712 5.37397 30.3243 5.7691 29.8618 6.16423L28.1201 7.66261C28.0968 7.68265 28.1102 7.72263 28.1402 7.72263H30.653C30.6727 7.72263 30.6876 7.74129 30.6845 7.76184L30.5214 8.82347C30.5189 8.83982 30.5056 8.85182 30.49 8.85182H26.2524C26.2327 8.85182 26.2178 8.83304 26.221 8.81243L26.367 7.89334Z" fill="#333333"/>
<path d="M35.9686 6.44526C35.9883 6.44526 36.0032 6.46395 36.0001 6.48452L35.8371 7.53593C35.8346 7.55225 35.8213 7.56423 35.8057 7.56423H34.9587C34.9431 7.56423 34.9299 7.5761 34.9273 7.59234L34.7291 8.82372C34.7265 8.83995 34.7133 8.85182 34.6977 8.85182H33.5676C33.5478 8.85182 33.5328 8.83299 33.5362 8.81236L33.7306 7.6037C33.7339 7.58307 33.719 7.56423 33.6992 7.56423H30.8072C30.7874 7.56423 30.7724 7.54523 30.7759 7.52453L30.9555 6.45497C30.9565 6.44863 30.9593 6.44274 30.9634 6.438L34.6862 2.15395C34.6923 2.14701 34.7008 2.14307 34.7097 2.14307H35.7421C35.7618 2.14307 35.7767 2.16183 35.7735 2.18243L35.1066 6.40589C35.1034 6.42649 35.1183 6.44526 35.138 6.44526H35.9686ZM32.2397 6.38857C32.2209 6.41022 32.2354 6.44526 32.2631 6.44526H33.8787C33.8942 6.44526 33.9075 6.43336 33.9101 6.41711L34.2731 4.14068C34.2784 4.10753 34.2398 4.08743 34.2183 4.11214L32.2397 6.38857Z" fill="#333333"/>
<path d="M8.6954 14.4831C8.6954 14.6272 8.57507 14.744 8.42664 14.744H6.05999C5.91156 14.744 5.79124 14.8608 5.79124 15.0049V22.2202C5.79124 22.3643 5.67091 22.4811 5.52248 22.4811H4.15855C4.01012 22.4811 3.88979 22.3643 3.88979 22.2202V15.0049C3.88979 14.8608 3.76947 14.744 3.62104 14.744H1.26924C1.12081 14.744 1.00049 14.6272 1.00049 14.4831V13.2743C1.00049 13.1302 1.12081 13.0134 1.26924 13.0134H8.42664C8.57507 13.0134 8.6954 13.1302 8.6954 13.2743V14.4831Z" fill="#333333"/>
<path d="M9.81849 22.4811C9.67006 22.4811 9.54974 22.3643 9.54974 22.2202V13.2743C9.54974 13.1302 9.67006 13.0134 9.81849 13.0134H11.1824C11.3309 13.0134 11.4512 13.1302 11.4512 13.2743V22.2202C11.4512 22.3643 11.3309 22.4811 11.1824 22.4811H9.81849Z" fill="#333333"/>
<path d="M21.1842 13.9417C21.2898 14.0332 21.2946 14.1898 21.2013 14.2932L20.2813 15.3123C20.1836 15.4206 20.0145 15.4307 19.8965 15.3436C19.2767 14.8862 18.5711 14.6575 17.7796 14.6575C17.23 14.6575 16.7249 14.7969 16.2644 15.0757C15.8039 15.3497 15.4399 15.7246 15.1725 16.2006C14.9101 16.6765 14.7789 17.1956 14.7789 17.7581C14.7789 18.6185 15.076 19.3492 15.6702 19.9501C16.2644 20.5462 17.0071 20.8442 17.8984 20.8442C18.3243 20.8442 18.7328 20.7697 19.124 20.6207C19.4162 20.5058 19.6726 20.3587 19.893 20.1793C20.013 20.0816 20.1942 20.0826 20.2993 20.1954L21.2027 21.1653C21.2958 21.2653 21.2958 21.4184 21.1959 21.512C20.3572 22.2975 19.2135 22.6902 17.7648 22.6902C16.8338 22.6902 15.9846 22.4691 15.2171 22.0268C14.4496 21.5845 13.848 20.9861 13.4122 20.2313C12.9765 19.4766 12.7586 18.6522 12.7586 17.7581C12.7586 16.8639 12.9814 16.0371 13.4271 15.2776C13.8727 14.5181 14.4793 13.9172 15.2468 13.4749C16.0193 13.0327 16.8586 12.8115 17.7648 12.8115C19.174 12.8115 20.3139 13.1883 21.1842 13.9417Z" fill="#333333"/>
<path d="M22.6239 22.4811C22.4755 22.4811 22.3551 22.3643 22.3551 22.2202V13.2743C22.3551 13.1302 22.4755 13.0134 22.6239 13.0134H23.9878C24.1363 13.0134 24.2566 13.1302 24.2566 13.2743V16.6535C24.2566 16.7976 24.3769 16.9144 24.5253 16.9144H25.0432C25.132 16.9144 25.215 16.8719 25.2651 16.8008L27.8532 13.127C27.9033 13.0559 27.9863 13.0134 28.075 13.0134H29.5698C29.786 13.0134 29.9137 13.2487 29.7915 13.4218L26.9026 17.5144C26.839 17.6045 26.84 17.7235 26.905 17.8127L30.0097 22.0694C30.1358 22.2422 30.0085 22.4811 29.7904 22.4811H28.1407C28.0526 22.4811 27.9701 22.4391 27.9199 22.3689L25.3395 18.7572C25.2893 18.6869 25.2067 18.645 25.1186 18.645H24.5253C24.3769 18.645 24.2566 18.7618 24.2566 18.9059V22.2202C24.2566 22.3643 24.1363 22.4811 23.9878 22.4811H22.6239Z" fill="#333333"/>
<path d="M31.4925 22.4811C31.3441 22.4811 31.2238 22.3643 31.2238 22.2202V13.2743C31.2238 13.1302 31.3441 13.0134 31.4925 13.0134H37.2684C37.4168 13.0134 37.5372 13.1302 37.5372 13.2743V14.4831C37.5372 14.6272 37.4168 14.744 37.2684 14.744H33.394C33.2455 14.744 33.1252 14.8608 33.1252 15.0049V16.5814C33.1252 16.7255 33.2455 16.8423 33.394 16.8423H36.6594C36.8078 16.8423 36.9281 16.9591 36.9281 17.1032V18.3192C36.9281 18.4633 36.8078 18.5801 36.6594 18.5801H33.394C33.2455 18.5801 33.1252 18.6969 33.1252 18.841V20.4752C33.1252 20.6193 33.2455 20.7361 33.394 20.7361H37.2684C37.4168 20.7361 37.5372 20.8529 37.5372 20.997V22.2202C37.5372 22.3643 37.4168 22.4811 37.2684 22.4811H31.4925Z" fill="#333333"/>
<path d="M46.0297 14.4831C46.0297 14.6272 45.9094 14.744 45.761 14.744H43.3943C43.2459 14.744 43.1256 14.8608 43.1256 15.0049V22.2202C43.1256 22.3643 43.0052 22.4811 42.8568 22.4811H41.4929C41.3444 22.4811 41.2241 22.3643 41.2241 22.2202V15.0049C41.2241 14.8608 41.1038 14.744 40.9554 14.744H38.6036C38.4551 14.744 38.3348 14.6272 38.3348 14.4831V13.2743C38.3348 13.1302 38.4551 13.0134 38.6036 13.0134H45.761C45.9094 13.0134 46.0297 13.1302 46.0297 13.2743V14.4831Z" fill="#333333"/>
</svg>
