<svg width="280" height="34" viewBox="0 0 280 34" fill="none" xmlns="http://www.w3.org/2000/svg">
<rect x="0.5" y="0.5" width="279" height="33" rx="16.5" stroke="#333333"/>
<path d="M41.516 19.588C40.484 19.588 39.764 18.46 39.764 16.708C39.764 14.968 40.484 13.84 41.516 13.84C42.536 13.84 43.256 14.968 43.256 16.708C43.256 18.46 42.536 19.588 41.516 19.588ZM46.52 12.124V16.228H44.18C44.024 14.212 42.968 12.952 41.516 12.952C39.944 12.952 38.828 14.416 38.828 16.708C38.828 19 39.944 20.464 41.516 20.464C43.016 20.464 44.084 19.144 44.18 17.032H46.52V22.912H47.504V12.124H46.52ZM55.7231 15.088V15.892H57.6551V19.972H58.6511V12.136H57.6551V15.088H55.7231ZM56.6351 17.188C55.8191 17.38 55.1351 17.416 54.2231 17.428V13.816H56.2391V13.024H53.2511V18.232H53.8031C54.9791 18.232 55.7711 18.208 56.7311 17.992L56.6351 17.188ZM52.8071 17.2C52.0991 17.356 51.4631 17.404 50.9351 17.428V13.816H52.6751V13.024H49.9631V18.232H50.4431C51.1271 18.232 51.9191 18.232 52.8911 18.004L52.8071 17.2ZM52.4351 21.844V19.312H51.4511V22.648H58.9151V21.844H52.4351ZM71.4139 13.588C71.4139 14.428 71.4139 15.22 71.1259 16.324L72.0859 16.432C72.3859 15.328 72.3859 14.452 72.3859 13.588V12.676H65.0539V13.468H71.4139V13.588ZM68.7139 22.108C67.0339 22.108 65.9539 21.652 65.9539 20.908C65.9539 20.14 67.0339 19.684 68.7139 19.684C70.4059 19.684 71.4859 20.14 71.4859 20.908C71.4859 21.652 70.4059 22.108 68.7139 22.108ZM68.7139 18.928C66.4219 18.928 64.9699 19.66 64.9699 20.908C64.9699 22.132 66.4219 22.876 68.7139 22.876C71.0059 22.876 72.4699 22.132 72.4699 20.908C72.4699 19.66 71.0059 18.928 68.7139 18.928ZM68.8699 17.14V15.076H67.8859V17.14H63.9139V17.944H73.5979V17.14H68.8699ZM76.033 15.508C76.033 14.44 76.813 13.672 77.869 13.672C78.913 13.672 79.693 14.44 79.693 15.508C79.693 16.576 78.913 17.344 77.869 17.344C76.813 17.344 76.033 16.576 76.033 15.508ZM82.801 14.608V16.396H80.485C80.581 16.12 80.629 15.82 80.629 15.508C80.629 15.184 80.581 14.884 80.485 14.608H82.801ZM82.801 17.188V20.08H83.797V12.136H82.801V13.816H80.065C79.561 13.192 78.793 12.808 77.869 12.808C76.285 12.808 75.097 13.936 75.097 15.508C75.097 17.08 76.285 18.208 77.869 18.208C78.793 18.208 79.573 17.824 80.077 17.188H82.801ZM77.905 21.844V19.264H76.909V22.648H84.097V21.844H77.905ZM90.828 13.048C92.592 13.048 93.6 13.456 93.6 14.176C93.6 14.896 92.592 15.304 90.828 15.304C89.064 15.304 88.056 14.896 88.056 14.176C88.056 13.456 89.064 13.048 90.828 13.048ZM90.828 16.036C93.192 16.036 94.608 15.388 94.608 14.176C94.608 12.964 93.192 12.304 90.828 12.304C88.464 12.304 87.048 12.964 87.048 14.176C87.048 15.388 88.464 16.036 90.828 16.036ZM88.128 20.908H94.452V18.484H87.132V19.228H93.48V20.188H87.168V22.768H94.776V22H88.128V20.908ZM85.956 16.768V17.56H95.7V16.768H85.956ZM100.843 12.808V13.612H104.659C104.455 15.436 102.859 16.84 100.303 17.572L100.711 18.34C103.795 17.464 105.703 15.532 105.703 12.808H100.843ZM103.063 19.504H108.079V21.94H103.063V19.504ZM102.091 22.732H109.039V18.724H102.091V22.732ZM108.055 12.124V14.896H105.715V15.7H108.055V18.268H109.039V12.124H108.055ZM116.61 17.224C115.218 16.672 114.426 15.424 114.426 14.212V12.76H113.478V14.212C113.478 15.436 112.638 16.852 111.234 17.488L111.762 18.244C112.806 17.776 113.574 16.864 113.958 15.844C114.342 16.768 115.086 17.56 116.082 17.968L116.61 17.224ZM113.07 20.02H119.322V22.888H120.306V19.228H113.07V20.02ZM119.358 12.136V14.932H117.99V12.316H117.054V18.568H117.99V15.736H119.358V18.64H120.306V12.136H119.358ZM125.417 19.672C124.445 19.672 123.737 18.976 123.737 18.016C123.737 17.044 124.445 16.348 125.417 16.348C126.401 16.348 127.109 17.044 127.109 18.016C127.109 18.976 126.401 19.672 125.417 19.672ZM125.417 15.532C123.905 15.532 122.813 16.564 122.813 18.016C122.813 19.48 123.905 20.488 125.417 20.488C126.953 20.488 128.045 19.48 128.045 18.016C128.045 16.564 126.953 15.532 125.417 15.532ZM125.897 12.256H124.913V13.852H122.201V14.644H128.549V13.852H125.897V12.256ZM132.317 16.552H130.553V12.136H129.569V22.888H130.553V17.38H132.317V16.552ZM137.116 13.06H136.144V14.992C136.144 17.032 134.836 19.096 133.252 19.852L133.852 20.656C135.112 20.008 136.144 18.664 136.636 17.044C137.152 18.58 138.184 19.852 139.408 20.452L139.996 19.66C138.4 18.94 137.116 16.96 137.116 14.992V13.06ZM141.124 12.124V22.912H142.108V12.124H141.124ZM145.743 13.168H144.771V20.164H145.623C147.267 20.164 148.911 20.044 150.747 19.672L150.627 18.856C148.887 19.204 147.291 19.336 145.743 19.336V13.168ZM154.347 16.42H152.619V12.124H151.635V22.888H152.619V17.236H154.347V16.42ZM158.75 18.16C159.194 18.268 159.71 18.328 160.238 18.328C160.778 18.328 161.294 18.268 161.75 18.16V20.692H158.75V18.16ZM160.238 13.576C161.966 13.576 163.214 14.368 163.214 15.568C163.214 16.768 161.966 17.56 160.238 17.56C158.51 17.56 157.274 16.768 157.274 15.568C157.274 14.368 158.51 13.576 160.238 13.576ZM162.734 20.692V17.776C163.622 17.308 164.15 16.54 164.15 15.568C164.15 13.888 162.53 12.808 160.238 12.808C157.958 12.808 156.326 13.888 156.326 15.568C156.326 16.54 156.866 17.32 157.766 17.788V20.692H155.366V21.508H165.146V20.692H162.734ZM168.031 19.4901V19.4091C168.037 18.8807 168.089 18.4602 168.189 18.1477C168.291 17.8352 168.436 17.5824 168.624 17.3892C168.811 17.196 169.037 17.0199 169.301 16.8608C169.472 16.7528 169.625 16.6321 169.761 16.4986C169.898 16.3651 170.006 16.2116 170.085 16.0384C170.165 15.8651 170.205 15.6733 170.205 15.4631C170.205 15.2102 170.145 14.9915 170.026 14.8068C169.906 14.6222 169.747 14.4801 169.548 14.3807C169.352 14.2784 169.134 14.2273 168.892 14.2273C168.673 14.2273 168.464 14.2727 168.266 14.3636C168.067 14.4545 167.902 14.5966 167.771 14.7898C167.641 14.9801 167.565 15.2259 167.545 15.527H166.25C166.27 15.0156 166.399 14.5838 166.638 14.2315C166.876 13.8764 167.192 13.608 167.584 13.4261C167.979 13.2443 168.415 13.1534 168.892 13.1534C169.415 13.1534 169.872 13.2514 170.264 13.4474C170.656 13.6406 170.96 13.9119 171.176 14.2614C171.395 14.608 171.504 15.0128 171.504 15.4759C171.504 15.794 171.455 16.081 171.355 16.3366C171.256 16.5895 171.114 16.8153 170.929 17.0142C170.747 17.2131 170.528 17.3892 170.273 17.5426C170.031 17.6932 169.835 17.8494 169.685 18.0114C169.537 18.1733 169.429 18.3651 169.361 18.5866C169.293 18.8082 169.256 19.0824 169.25 19.4091V19.4901H168.031ZM168.675 22.081C168.442 22.081 168.241 21.9986 168.074 21.8338C167.906 21.6662 167.822 21.4645 167.822 21.2287C167.822 20.9957 167.906 20.7969 168.074 20.6321C168.241 20.4645 168.442 20.3807 168.675 20.3807C168.905 20.3807 169.104 20.4645 169.271 20.6321C169.442 20.7969 169.527 20.9957 169.527 21.2287C169.527 21.3849 169.487 21.5284 169.408 21.6591C169.331 21.7869 169.229 21.8892 169.101 21.9659C168.973 22.0426 168.831 22.081 168.675 22.081Z" fill="#333333" fill-opacity="0.4"/>
<path fill-rule="evenodd" clip-rule="evenodd" d="M27 16C27 19.3137 24.3137 22 21 22C17.6863 22 15 19.3137 15 16C15 12.6863 17.6863 10 21 10C24.3137 10 27 12.6863 27 16ZM26.0305 22.4447C25.9591 22.3734 25.8461 22.3665 25.7651 22.4266C24.4341 23.4152 22.7853 24 21 24C16.5817 24 13 20.4183 13 16C13 11.5817 16.5817 8 21 8C25.4183 8 29 11.5817 29 16C29 17.7853 28.4152 19.4341 27.4266 20.7651C27.3665 20.8461 27.3734 20.9591 27.4447 21.0305L31.5657 25.1515C31.6438 25.2296 31.6438 25.3562 31.5657 25.4343L30.4343 26.5657C30.3562 26.6438 30.2296 26.6438 30.1515 26.5657L26.0305 22.4447Z" fill="#333333"/>
</svg>
