<svg width="312" height="70" viewBox="0 0 312 70" fill="none" xmlns="http://www.w3.org/2000/svg">
<g filter="url(#filter0_d_1095_48889)">
<mask id="path-1-inside-1_1095_48889" fill="white">
<path fill-rule="evenodd" clip-rule="evenodd" d="M12 3C9.23858 3 7 5.23858 7 8V62C7 64.7614 9.23858 67 12 67H259C259 66.3434 259.129 65.6932 259.381 65.0866C259.632 64.48 260 63.9288 260.464 63.4645C260.929 63.0002 261.48 62.6319 262.087 62.3806C262.693 62.1293 263.343 62 264 62C264.657 62 265.307 62.1293 265.913 62.3806C266.52 62.6319 267.071 63.0002 267.536 63.4645C268 63.9288 268.368 64.48 268.619 65.0866C268.871 65.6932 269 66.3434 269 67H300C302.761 67 305 64.7614 305 62V8C305 5.23858 302.761 3 300 3H269C269 3.65661 268.871 4.30679 268.619 4.91342C268.368 5.52004 268 6.07124 267.536 6.53553C267.071 6.99983 266.52 7.36812 265.913 7.6194C265.307 7.87067 264.657 8 264 8C263.343 8 262.693 7.87067 262.087 7.6194C261.48 7.36812 260.929 6.99983 260.464 6.53553C260 6.07124 259.632 5.52004 259.381 4.91342C259.129 4.30679 259 3.65661 259 3H12Z"/>
</mask>
<path fill-rule="evenodd" clip-rule="evenodd" d="M12 3C9.23858 3 7 5.23858 7 8V62C7 64.7614 9.23858 67 12 67H259C259 66.3434 259.129 65.6932 259.381 65.0866C259.632 64.48 260 63.9288 260.464 63.4645C260.929 63.0002 261.48 62.6319 262.087 62.3806C262.693 62.1293 263.343 62 264 62C264.657 62 265.307 62.1293 265.913 62.3806C266.52 62.6319 267.071 63.0002 267.536 63.4645C268 63.9288 268.368 64.48 268.619 65.0866C268.871 65.6932 269 66.3434 269 67H300C302.761 67 305 64.7614 305 62V8C305 5.23858 302.761 3 300 3H269C269 3.65661 268.871 4.30679 268.619 4.91342C268.368 5.52004 268 6.07124 267.536 6.53553C267.071 6.99983 266.52 7.36812 265.913 7.6194C265.307 7.87067 264.657 8 264 8C263.343 8 262.693 7.87067 262.087 7.6194C261.48 7.36812 260.929 6.99983 260.464 6.53553C260 6.07124 259.632 5.52004 259.381 4.91342C259.129 4.30679 259 3.65661 259 3H12Z" fill="white"/>
<path d="M259 67V68H260V67H259ZM259.381 65.0866L258.457 64.7039L258.457 64.7039L259.381 65.0866ZM265.913 62.3806L265.531 63.3045L265.531 63.3045L265.913 62.3806ZM268.619 65.0866L267.695 65.4692L267.696 65.4693L268.619 65.0866ZM269 67H268V68H269V67ZM269 3V2H268V3H269ZM268.619 4.91342L267.696 4.53072L267.695 4.53076L268.619 4.91342ZM267.536 6.53553L266.828 5.82843L266.828 5.82843L267.536 6.53553ZM265.913 7.6194L265.531 6.69552L265.531 6.69552L265.913 7.6194ZM259.381 4.91342L258.457 5.29609L258.457 5.29611L259.381 4.91342ZM259 3H260V2H259V3ZM8 8C8 5.79086 9.79086 4 12 4V2C8.68629 2 6 4.68629 6 8H8ZM8 62V8H6V62H8ZM12 66C9.79086 66 8 64.2091 8 62H6C6 65.3137 8.68629 68 12 68V66ZM259 66H12V68H259V66ZM260 67C260 66.4747 260.103 65.9546 260.304 65.4693L258.457 64.7039C258.155 65.4319 258 66.2121 258 67H260ZM260.304 65.4693C260.506 64.984 260.8 64.543 261.172 64.1716L259.757 62.7574C259.2 63.3145 258.758 63.9759 258.457 64.7039L260.304 65.4693ZM261.172 64.1716C261.543 63.8001 261.984 63.5055 262.469 63.3045L261.704 61.4567C260.976 61.7583 260.315 62.2002 259.757 62.7574L261.172 64.1716ZM262.469 63.3045C262.955 63.1035 263.475 63 264 63V61C263.212 61 262.432 61.1552 261.704 61.4567L262.469 63.3045ZM264 63C264.525 63 265.045 63.1035 265.531 63.3045L266.296 61.4567C265.568 61.1552 264.788 61 264 61V63ZM265.531 63.3045C266.016 63.5055 266.457 63.8001 266.828 64.1716L268.243 62.7574C267.685 62.2002 267.024 61.7583 266.296 61.4567L265.531 63.3045ZM266.828 64.1716C267.2 64.543 267.495 64.984 267.695 65.4692L269.543 64.7039C269.242 63.9759 268.8 63.3145 268.243 62.7574L266.828 64.1716ZM267.696 65.4693C267.897 65.9546 268 66.4747 268 67H270C270 66.2121 269.845 65.4318 269.543 64.7039L267.696 65.4693ZM300 66H269V68H300V66ZM304 62C304 64.2091 302.209 66 300 66V68C303.314 68 306 65.3137 306 62H304ZM304 8V62H306V8H304ZM300 4C302.209 4 304 5.79086 304 8H306C306 4.68629 303.314 2 300 2V4ZM269 4H300V2H269V4ZM268 3C268 3.52528 267.897 4.04542 267.696 4.53072L269.543 5.29611C269.845 4.56816 270 3.78794 270 3H268ZM267.695 4.53076C267.495 5.01603 267.2 5.45698 266.828 5.82843L268.243 7.24264C268.8 6.6855 269.242 6.02406 269.543 5.29607L267.695 4.53076ZM266.828 5.82843C266.457 6.19987 266.016 6.4945 265.531 6.69552L266.296 8.54328C267.024 8.24174 267.685 7.79978 268.243 7.24264L266.828 5.82843ZM265.531 6.69552C265.045 6.89654 264.525 7 264 7V9C264.788 9 265.568 8.84481 266.296 8.54328L265.531 6.69552ZM264 7C263.475 7 262.955 6.89654 262.469 6.69552L261.704 8.54328C262.432 8.84481 263.212 9 264 9V7ZM262.469 6.69552C261.984 6.4945 261.543 6.19986 261.172 5.82843L259.757 7.24264C260.315 7.79979 260.976 8.24175 261.704 8.54328L262.469 6.69552ZM261.172 5.82843C260.8 5.457 260.506 5.01604 260.304 4.53072L258.457 5.29611C258.758 6.02405 259.2 6.68548 259.757 7.24264L261.172 5.82843ZM260.304 4.53074C260.103 4.04543 260 3.52528 260 3H258C258 3.78794 258.155 4.56815 258.457 5.29609L260.304 4.53074ZM12 4H259V2H12V4Z" fill="#333333" fill-opacity="0.15" mask="url(#path-1-inside-1_1095_48889)"/>
</g>
<path d="M7 8C7 5.23858 9.23858 3 12 3H13V67H12C9.23858 67 7 64.7614 7 62V8Z" fill="#333333"/>
<path d="M65.1091 41.0739V30.2031H67.9088V31.2131H66.3279V40.0639H67.9088V41.0739H65.1091ZM68.5619 31.2727H70.0576L72.3374 35.2401H72.4312L74.711 31.2727H76.2068L73.0406 36.5739V40H71.7281V36.5739L68.5619 31.2727ZM77.45 40V31.2727H82.9216V32.4062H78.7668V35.0653H82.6361V36.1946H78.7668V38.8665H82.9727V40H77.45ZM89.4404 33.5653C89.395 33.1619 89.2075 32.8494 88.8779 32.6278C88.5484 32.4034 88.1336 32.2912 87.6336 32.2912C87.2757 32.2912 86.966 32.348 86.7046 32.4616C86.4433 32.5724 86.2401 32.7259 86.0953 32.9219C85.9532 33.1151 85.8822 33.3352 85.8822 33.5824C85.8822 33.7898 85.9305 33.9687 86.0271 34.1193C86.1265 34.2699 86.2558 34.3963 86.4149 34.4986C86.5768 34.598 86.7501 34.6818 86.9347 34.75C87.1194 34.8153 87.297 34.8693 87.4674 34.9119L88.3197 35.1335C88.5981 35.2017 88.8836 35.294 89.1762 35.4105C89.4688 35.527 89.7401 35.6804 89.9901 35.8707C90.2401 36.0611 90.4419 36.2969 90.5953 36.5781C90.7515 36.8594 90.8296 37.196 90.8296 37.5881C90.8296 38.0824 90.7018 38.5213 90.4461 38.9048C90.1933 39.2884 89.8254 39.5909 89.3424 39.8125C88.8623 40.0341 88.2813 40.1449 87.5995 40.1449C86.9461 40.1449 86.3808 40.0412 85.9035 39.8338C85.4262 39.6264 85.0526 39.3324 84.7828 38.9517C84.5129 38.5682 84.3637 38.1136 84.3353 37.5881H85.6563C85.6819 37.9034 85.7842 38.1662 85.9632 38.3764C86.145 38.5838 86.3765 38.7386 86.6578 38.8409C86.9419 38.9403 87.2529 38.9901 87.591 38.9901C87.9632 38.9901 88.2941 38.9318 88.5839 38.8153C88.8765 38.696 89.1066 38.5312 89.2742 38.321C89.4419 38.108 89.5257 37.8594 89.5257 37.5753C89.5257 37.3168 89.4518 37.1051 89.3041 36.9403C89.1592 36.7756 88.9617 36.6392 88.7117 36.5312C88.4646 36.4233 88.1847 36.3281 87.8722 36.2457L86.841 35.9645C86.1421 35.7741 85.5882 35.4943 85.1791 35.125C84.7728 34.7557 84.5697 34.267 84.5697 33.6591C84.5697 33.1562 84.7061 32.7173 84.9788 32.3423C85.2515 31.9673 85.6208 31.6761 86.0867 31.4688C86.5526 31.2585 87.0782 31.1534 87.6634 31.1534C88.2544 31.1534 88.7757 31.2571 89.2274 31.4645C89.6819 31.6719 90.0399 31.9574 90.3012 32.321C90.5626 32.6818 90.699 33.0966 90.7103 33.5653H89.4404ZM95.6401 31.168V38.188H100.62V31.168H95.6401ZM99.6481 31.972V37.384H96.6121V31.972H99.6481ZM102.552 30.088V40.936H103.56V30.088H102.552ZM103.32 34.42V35.26H105.336V34.42H103.32ZM114.143 30.088V40.936H115.139V30.088H114.143ZM106.943 31.144V37.864H107.927V31.144H106.943ZM106.943 37.276V38.14H107.831C109.547 38.14 111.263 38.008 113.147 37.624L113.027 36.772C111.191 37.156 109.475 37.276 107.831 37.276H106.943ZM120.178 30.916C118.582 30.916 117.454 32.392 117.454 34.696C117.454 37.012 118.582 38.488 120.178 38.488C121.774 38.488 122.902 37.012 122.902 34.696C122.902 32.392 121.774 30.916 120.178 30.916ZM120.178 31.816C121.222 31.816 121.954 32.944 121.954 34.696C121.954 36.46 121.222 37.612 120.178 37.612C119.122 37.612 118.402 36.46 118.402 34.696C118.402 32.944 119.122 31.816 120.178 31.816ZM124.63 30.088V40.936H125.638V30.088H124.63ZM125.398 34.42V35.26H127.414V34.42H125.398ZM130.903 30.9446V41.8153H128.104V40.8054H129.685V31.9545H128.104V30.9446H130.903ZM140.368 32.704V33.532H142.48V32.704H140.368ZM140.368 36.004V36.832H142.48V36.004H140.368ZM144.304 30.088V40.936H145.264V30.088H144.304ZM142.18 30.316V40.396H143.116V30.316H142.18ZM138.484 30.988C137.08 30.988 136.18 32.44 136.18 34.768C136.18 37.096 137.08 38.548 138.484 38.548C139.888 38.548 140.8 37.096 140.8 34.768C140.8 32.44 139.888 30.988 138.484 30.988ZM138.484 31.912C139.348 31.912 139.888 33.016 139.888 34.768C139.888 36.52 139.348 37.624 138.484 37.624C137.632 37.624 137.08 36.52 137.08 34.768C137.08 33.016 137.632 31.912 138.484 31.912ZM155.343 30.088V40.936H156.303V30.088H155.343ZM153.627 34.384V35.2H155.703V34.384H153.627ZM152.943 30.316V40.396H153.891V30.316H152.943ZM147.471 31.336V38.032H151.611V31.336H147.471ZM150.675 32.128V37.24H148.407V32.128H150.675ZM162.506 30.472V31.072C162.506 32.62 160.598 33.916 158.618 34.216L159.014 35.02C161.27 34.636 163.382 33.148 163.382 31.072V30.472H162.506ZM162.686 30.472V31.072C162.686 33.124 164.81 34.636 167.042 35.02L167.438 34.216C165.482 33.916 163.55 32.584 163.55 31.072V30.472H162.686ZM162.506 36.808V40.936H163.49V36.808H162.506ZM158.126 36.196V37.024H167.93V36.196H158.126ZM173.545 30.472V31.072C173.545 32.62 171.637 33.916 169.657 34.216L170.053 35.02C172.309 34.636 174.421 33.148 174.421 31.072V30.472H173.545ZM173.725 30.472V31.072C173.725 33.124 175.849 34.636 178.081 35.02L178.477 34.216C176.521 33.916 174.589 32.584 174.589 31.072V30.472H173.725ZM173.545 36.808V40.936H174.529V36.808H173.545ZM169.165 36.196V37.024H178.969V36.196H169.165ZM182.94 36.448V39.112H183.924V36.448H182.94ZM186.408 36.424V39.1H187.38V36.424H186.408ZM180.204 38.776V39.604H190.032V38.776H180.204ZM181.392 30.892V31.696H187.836V33.376H181.428V36.352H182.412V34.168H188.82V30.892H181.392ZM181.428 35.908V36.724H189.072V35.908H181.428ZM199.615 31.996V32.812H202.651V31.996H199.615ZM199.615 34.312V35.14H202.675V34.312H199.615ZM194.911 31.024V36.112H199.867V31.024H194.911ZM198.883 31.828V35.308H195.883V31.828H198.883ZM202.339 30.1V38.02H203.335V30.1H202.339ZM196.363 39.88V40.696H203.599V39.88H196.363ZM196.363 37.3V40.252H197.359V37.3H196.363ZM213.702 30.088V40.936H214.662V30.088H213.702ZM209.754 33.976V34.804H211.83V33.976H209.754ZM211.53 30.34V40.384H212.466V30.34H211.53ZM207.666 31.768V33.148C207.666 35.14 206.826 37.12 205.314 38.032L205.926 38.776C207.522 37.768 208.434 35.524 208.434 33.148V31.768H207.666ZM207.87 31.768V33.148C207.87 35.416 208.746 37.552 210.33 38.512L210.942 37.78C209.454 36.916 208.638 35.032 208.638 33.148V31.768H207.87ZM205.614 31.348V32.176H210.57V31.348H205.614ZM224.357 33.088L217.409 33.34L217.553 34.192L224.357 33.856V33.088ZM217.733 30.76V31.576H224.513V30.76H217.733ZM216.497 35.92V36.748H226.301V35.92H216.497ZM220.913 36.544V40.936H221.897V36.544H220.913ZM224.093 30.76V31.744C224.093 32.92 224.093 34.228 223.637 36.052L224.621 36.172C225.053 34.252 225.053 32.932 225.053 31.744V30.76H224.093ZM228.437 30.58V31.384H236.405V30.58H228.437ZM228.485 33.844V34.648H236.357V33.844H228.485ZM230.081 30.952V34.204H231.077V30.952H230.081ZM233.777 30.952V34.204H234.761V30.952H233.777ZM227.525 35.956V36.772H237.329V35.956H227.525ZM231.941 34.384V36.46H232.925V34.384H231.941ZM228.797 39.88V40.696H236.249V39.88H228.797ZM228.797 37.708V40.144H229.793V37.708H228.797Z" fill="#333333"/>
<path d="M273.044 22.532V27.272H278.06V22.532H277.088V24.092H274.028V22.532H273.044ZM274.028 24.872H277.088V26.468H274.028V24.872ZM280.016 22.088V27.68H281.012V22.088H280.016ZM280.58 24.416V25.244H282.608V24.416H280.58ZM274.124 28.208V29H280.04V30.092H274.148V32.468H275.132V30.836H281.012V28.208H274.124ZM274.148 32.024V32.816H281.408V32.024H274.148ZM284.911 28.292V32.792H292.195V28.292H291.199V29.72H285.895V28.292H284.911ZM285.895 30.512H291.199V31.988H285.895V30.512ZM284.887 22.58V23.396H291.871V22.58H284.887ZM283.639 26.504V27.332H293.467V26.504H283.639ZM291.223 22.58V23.372C291.223 24.26 291.223 25.292 290.863 26.744L291.859 26.732C292.195 25.28 292.195 24.26 292.195 23.372V22.58H291.223ZM275.396 41.588V43.232H276.392V41.588H275.396ZM275.864 37.58C274.304 37.58 273.2 38.444 273.2 39.728C273.2 41.012 274.304 41.864 275.864 41.864C277.436 41.864 278.54 41.012 278.54 39.728C278.54 38.444 277.436 37.58 275.864 37.58ZM275.864 38.348C276.896 38.348 277.604 38.912 277.604 39.728C277.604 40.556 276.896 41.108 275.864 41.108C274.844 41.108 274.136 40.556 274.136 39.728C274.136 38.912 274.844 38.348 275.864 38.348ZM280.004 37.1V45.392H281V37.1H280.004ZM280.58 40.76V41.588H282.584V40.76H280.58ZM274.136 46.868V47.696H281.384V46.868H274.136ZM274.136 44.684V47.228H275.132V44.684H274.136ZM272.708 43.784C274.568 43.784 277.136 43.76 279.404 43.34L279.332 42.608C277.124 42.944 274.484 42.968 272.576 42.968L272.708 43.784ZM286.375 43.448V46.112H287.359V43.448H286.375ZM289.843 43.424V46.1H290.815V43.424H289.843ZM283.639 45.776V46.604H293.467V45.776H283.639ZM284.827 37.892V38.696H291.271V40.376H284.863V43.352H285.847V41.168H292.255V37.892H284.827ZM284.863 42.908V43.724H292.507V42.908H284.863Z" fill="#333333"/>
<line x1="263.5" y1="8" x2="263.5" y2="62" stroke="#333333" stroke-opacity="0.15" stroke-dasharray="3 3"/>
<path d="M37.7412 19L42.1191 22.9719L48.0258 22.7433L48.8263 28.6L53.4981 32.2216L50.3468 37.2227L51.5976 43L45.9689 44.8054L43.2135 50.0351L37.7412 47.8L32.2689 50.0351L29.5135 44.8054L23.8848 43L25.1357 37.2227L21.9843 32.2216L26.6561 28.6L27.4566 22.7433L33.3634 22.9719L37.7412 19Z" fill="#333333"/>
<path d="M38.2256 38.3636V37.9034C38.2256 37.554 38.2994 37.233 38.4472 36.9403C38.5977 36.6449 38.8151 36.4091 39.0992 36.233C39.3861 36.054 39.7355 35.9645 40.1475 35.9645C40.5651 35.9645 40.9159 36.0526 41.2 36.2287C41.4869 36.4048 41.7029 36.6406 41.8477 36.9361C41.9955 37.2287 42.0693 37.5511 42.0693 37.9034V38.3636C42.0693 38.7131 41.9955 39.0355 41.8477 39.331C41.7 39.6236 41.4827 39.858 41.1958 40.0341C40.9088 40.2131 40.5594 40.3026 40.1475 40.3026C39.7298 40.3026 39.379 40.2131 39.0949 40.0341C38.8108 39.858 38.5949 39.6236 38.4472 39.331C38.2994 39.0355 38.2256 38.7131 38.2256 38.3636ZM39.4656 37.9034V38.3636C39.4656 38.5653 39.5139 38.7557 39.6105 38.9347C39.71 39.1136 39.8889 39.2031 40.1475 39.2031C40.406 39.2031 40.5821 39.1151 40.6759 38.9389C40.7725 38.7628 40.8208 38.571 40.8208 38.3636V37.9034C40.8208 37.696 40.7753 37.5028 40.6844 37.3239C40.5935 37.1449 40.4145 37.0554 40.1475 37.0554C39.8918 37.0554 39.7142 37.1449 39.6148 37.3239C39.5154 37.5028 39.4656 37.696 39.4656 37.9034ZM33.7469 33.3693V32.9091C33.7469 32.5568 33.8222 32.2344 33.9727 31.9418C34.1233 31.6463 34.3406 31.4105 34.6247 31.2344C34.9117 31.0582 35.2583 30.9702 35.6645 30.9702C36.085 30.9702 36.4372 31.0582 36.7213 31.2344C37.0054 31.4105 37.2213 31.6463 37.3691 31.9418C37.5168 32.2344 37.5906 32.5568 37.5906 32.9091V33.3693C37.5906 33.7216 37.5154 34.044 37.3648 34.3366C37.2171 34.6293 36.9997 34.8636 36.7128 35.0398C36.4287 35.2131 36.0793 35.2997 35.6645 35.2997C35.2497 35.2997 34.8989 35.2116 34.6119 35.0355C34.3279 34.8565 34.1119 34.6222 33.9642 34.3324C33.8193 34.0398 33.7469 33.7187 33.7469 33.3693ZM34.9955 32.9091V33.3693C34.9955 33.5767 35.0438 33.7685 35.1404 33.9446C35.2398 34.1207 35.4145 34.2088 35.6645 34.2088C35.9259 34.2088 36.1034 34.1207 36.1972 33.9446C36.2938 33.7685 36.3421 33.5767 36.3421 33.3693V32.9091C36.3421 32.7017 36.2966 32.5085 36.2057 32.3295C36.1148 32.1506 35.9344 32.0611 35.6645 32.0611C35.4117 32.0611 35.2369 32.152 35.1404 32.3338C35.0438 32.5156 34.9955 32.7074 34.9955 32.9091ZM34.3094 40L40.3094 31.2727H41.4259L35.4259 40H34.3094Z" fill="white"/>
<defs>
<filter id="filter0_d_1095_48889" x="5" y="1" width="302" height="68" filterUnits="userSpaceOnUse" color-interpolation-filters="sRGB">
<feFlood flood-opacity="0" result="BackgroundImageFix"/>
<feColorMatrix in="SourceAlpha" type="matrix" values="0 0 0 0 0 0 0 0 0 0 0 0 0 0 0 0 0 0 127 0" result="hardAlpha"/>
<feOffset/>
<feGaussianBlur stdDeviation="1"/>
<feComposite in2="hardAlpha" operator="out"/>
<feColorMatrix type="matrix" values="0 0 0 0 0 0 0 0 0 0 0 0 0 0 0 0 0 0 0.2 0"/>
<feBlend mode="normal" in2="BackgroundImageFix" result="effect1_dropShadow_1095_48889"/>
<feBlend mode="normal" in="SourceGraphic" in2="effect1_dropShadow_1095_48889" result="shape"/>
</filter>
</defs>
</svg>
