<svg width="259" height="64" viewBox="0 0 259 64" fill="none" xmlns="http://www.w3.org/2000/svg">
<rect width="259" height="64" fill="#333333"/>
<path d="M104.393 33.736C104.447 33.25 104.483 32.71 104.483 32.152C104.483 31.576 104.447 31.036 104.375 30.532H105.833V33.736H104.393ZM100.901 35.95C99.9648 35.95 99.4248 34.69 99.4248 32.152C99.4248 29.614 99.9648 28.372 100.901 28.372C101.819 28.372 102.359 29.614 102.359 32.152C102.359 34.69 101.819 35.95 100.901 35.95ZM105.833 28.624H103.925C103.313 27.022 102.251 26.14 100.901 26.14C98.6868 26.14 97.3008 28.408 97.3008 32.152C97.3008 35.914 98.6868 38.182 100.901 38.182C102.269 38.182 103.331 37.264 103.943 35.662H105.833V40.792H108.047V25.24H105.833V28.624ZM109.127 24.952V41.53H111.377V24.952H109.127ZM116.397 28.534H118.521V35.554H116.397V28.534ZM114.183 37.408H120.717V26.662H114.183V37.408ZM125.685 24.952V31.288H124.299V25.222H122.085V40.792H124.299V33.196H125.685V41.53H127.935V24.952H125.685ZM135.062 36.22C133.946 36.22 133.118 35.464 133.118 34.204C133.118 32.944 133.946 32.17 135.062 32.17C136.178 32.17 136.988 32.944 136.988 34.186C136.988 35.464 136.178 36.22 135.062 36.22ZM135.062 30.244C132.65 30.244 130.85 31.882 130.85 34.186C130.85 36.526 132.65 38.164 135.062 38.164C137.456 38.164 139.238 36.526 139.238 34.186C139.238 31.882 137.456 30.244 135.062 30.244ZM136.232 25.258H133.856V27.418H130.184V29.308H139.832V27.418H136.232V25.258ZM145.664 31.45H143.288V24.97H140.912V41.548H143.288V33.412H145.664V31.45ZM147.751 26.68V28.57H153.277C152.935 32.242 151.099 34.834 146.869 36.868L148.111 38.74C153.997 35.896 155.707 31.756 155.707 26.68H147.751ZM158.245 24.952V41.53H160.639V24.952H158.245Z" fill="white"/>
</svg>
