<svg width="24" height="24" viewBox="0 0 24 24" fill="none" xmlns="http://www.w3.org/2000/svg">
<rect y="5" width="24" height="15" rx="1.5" fill="#9880F9"/>
<path d="M9.474 8.717V14.738H10.671V8.717H9.474ZM10.329 10.985V11.966H11.778V10.985H10.329ZM4.425 12.416V13.379H5.118C6.972 13.379 7.926 13.334 8.943 13.109L8.826 12.164C7.827 12.38 6.927 12.416 5.118 12.416H4.425ZM4.425 9.374V12.929H5.613V10.337H8.151V9.374H4.425ZM5.298 15.953V16.907H10.968V15.953H5.298ZM5.298 14.108V16.439H6.495V14.108H5.298ZM12.3983 12.758V13.694H19.9313V12.758H12.3983ZM15.5573 11.399V13.046H16.7543V11.399H15.5573ZM13.2263 14.261V15.206H17.8523V17.078H19.0403V14.261H13.2263ZM13.3073 11.075V12.029H19.1123V11.075H13.3073ZM13.3073 9.05V11.588H14.5043V9.995H19.0403V9.05H13.3073Z" fill="white"/>
</svg>
