<svg width="36" height="36" viewBox="0 0 36 36" fill="none" xmlns="http://www.w3.org/2000/svg">
<g clip-path="url(#clip0_1095_48901)">
<path fill-rule="evenodd" clip-rule="evenodd" d="M24.1626 10.2139L24.749 11.24L12.9192 17.9999L24.749 24.7597L24.1626 25.7859L10.5371 17.9999L24.1626 10.2139Z" fill="#333333"/>
<path d="M27.1827 10.7273C27.1827 12.2336 25.9616 13.4547 24.4554 13.4547C22.9491 13.4547 21.728 12.2336 21.728 10.7273C21.728 9.22108 22.9491 8 24.4554 8C25.9616 8 27.1827 9.22108 27.1827 10.7273Z" fill="white"/>
<path fill-rule="evenodd" clip-rule="evenodd" d="M24.4554 12.2728C25.3089 12.2728 26.0009 11.5809 26.0009 10.7273C26.0009 9.87379 25.3089 9.18185 24.4554 9.18185C23.6018 9.18185 22.9099 9.87379 22.9099 10.7273C22.9099 11.5809 23.6018 12.2728 24.4554 12.2728ZM24.4554 13.4547C25.9616 13.4547 27.1827 12.2336 27.1827 10.7273C27.1827 9.22108 25.9616 8 24.4554 8C22.9491 8 21.728 9.22108 21.728 10.7273C21.728 12.2336 22.9491 13.4547 24.4554 13.4547Z" fill="#333333"/>
<path d="M14.4552 17.9998C14.4552 19.5061 13.2341 20.7272 11.7278 20.7272C10.2216 20.7272 9.00049 19.5061 9.00049 17.9998C9.00049 16.4935 10.2216 15.2725 11.7278 15.2725C13.2341 15.2725 14.4552 16.4935 14.4552 17.9998Z" fill="white"/>
<path fill-rule="evenodd" clip-rule="evenodd" d="M11.7278 19.5453C12.5814 19.5453 13.2733 18.8534 13.2733 17.9998C13.2733 17.1463 12.5814 16.4543 11.7278 16.4543C10.8743 16.4543 10.1823 17.1463 10.1823 17.9998C10.1823 18.8534 10.8743 19.5453 11.7278 19.5453ZM11.7278 20.7272C13.2341 20.7272 14.4552 19.5061 14.4552 17.9998C14.4552 16.4935 13.2341 15.2725 11.7278 15.2725C10.2216 15.2725 9.00049 16.4935 9.00049 17.9998C9.00049 19.5061 10.2216 20.7272 11.7278 20.7272Z" fill="#333333"/>
<path d="M27.1827 25.2737C27.1827 26.78 25.9616 28.0011 24.4554 28.0011C22.9491 28.0011 21.728 26.78 21.728 25.2737C21.728 23.7675 22.9491 22.5464 24.4554 22.5464C25.9616 22.5464 27.1827 23.7675 27.1827 25.2737Z" fill="white"/>
<path fill-rule="evenodd" clip-rule="evenodd" d="M24.4554 26.8192C25.3089 26.8192 26.0009 26.1273 26.0009 25.2737C26.0009 24.4202 25.3089 23.7282 24.4554 23.7282C23.6018 23.7282 22.9099 24.4202 22.9099 25.2737C22.9099 26.1273 23.6018 26.8192 24.4554 26.8192ZM24.4554 28.0011C25.9616 28.0011 27.1827 26.78 27.1827 25.2737C27.1827 23.7675 25.9616 22.5464 24.4554 22.5464C22.9491 22.5464 21.728 23.7675 21.728 25.2737C21.728 26.78 22.9491 28.0011 24.4554 28.0011Z" fill="#333333"/>
</g>
<defs>
<clipPath id="clip0_1095_48901">
<rect width="36" height="36" fill="white"/>
</clipPath>
</defs>
</svg>
