<svg width="40" height="40" viewBox="0 0 40 40" fill="none" xmlns="http://www.w3.org/2000/svg">
<path d="M34.9995 16.4575C34.9995 20.1394 28.2838 23.1242 19.9995 23.1242M34.9995 16.4575C34.9995 12.7756 28.2838 9.79085 19.9995 9.79085C11.7152 9.79085 4.99951 12.7756 4.99951 16.4575M34.9995 16.4575V26.4575C34.9995 30.1394 28.2838 33.1242 19.9995 33.1242M19.9995 23.1242C11.7152 23.1242 4.99951 20.1394 4.99951 16.4575M19.9995 23.1242V33.1242M4.99951 16.4575V26.4575C4.99951 30.1394 11.7152 33.1242 19.9995 33.1242M11.6662 32.0016V22.0016M28.3328 32.0016V22.0016M19.9995 16.4575L33.3328 6.45752" stroke="#333333" stroke-width="1.8" stroke-linecap="round" stroke-linejoin="round"/>
</svg>
