<svg width="40" height="40" viewBox="0 0 40 40" fill="none" xmlns="http://www.w3.org/2000/svg">
<g clip-path="url(#clip0_1095_48904)">
<path d="M14.2462 18.3103C17.026 18.3103 19.2795 16.0568 19.2795 13.277C19.2795 10.4971 17.026 8.24365 14.2462 8.24365C11.4664 8.24365 9.21289 10.4971 9.21289 13.277C9.21289 16.0568 11.4664 18.3103 14.2462 18.3103Z" stroke="#333333" stroke-width="1.8" stroke-linecap="round" stroke-linejoin="round"/>
<path d="M4.0957 32.2437V29.3771C4.0957 26.0438 6.79569 23.3438 10.129 23.3438H19.1624C22.4957 23.3438 25.1957 26.0438 25.1957 29.3771V32.2437" stroke="#333333" stroke-width="1.8" stroke-linecap="round" stroke-linejoin="round"/>
<path d="M26.8134 19.744C28.8753 19.744 30.5467 18.0725 30.5467 16.0107C30.5467 13.9488 28.8753 12.2773 26.8134 12.2773C24.7516 12.2773 23.0801 13.9488 23.0801 16.0107C23.0801 18.0725 24.7516 19.744 26.8134 19.744Z" stroke="#333333" stroke-width="1.8" stroke-linecap="round" stroke-linejoin="round"/>
<path d="M27.8779 23.4771H30.4446C32.9113 23.4771 34.9113 25.4771 34.9113 27.9437V30.077" stroke="#333333" stroke-width="1.8" stroke-linecap="round" stroke-linejoin="round"/>
</g>
<defs>
<clipPath id="clip0_1095_48904">
<rect width="40" height="40" fill="white"/>
</clipPath>
</defs>
</svg>
