<svg width="40" height="40" viewBox="0 0 40 40" fill="none" xmlns="http://www.w3.org/2000/svg">
<path d="M34.5161 35.4575V36.3575C35.0132 36.3575 35.4161 35.9546 35.4161 35.4575H34.5161ZM4.51611 35.4575H3.61611C3.61611 35.9546 4.01906 36.3575 4.51611 36.3575V35.4575ZM32.6961 29.1542L32.2875 29.9561L32.6961 29.1542ZM34.1528 30.6109L33.3509 31.0195L34.1528 30.6109ZM6.33614 29.1542L6.74474 29.9561L6.74474 29.9561L6.33614 29.1542ZM4.87942 30.6109L5.68133 31.0195L4.87942 30.6109ZM4.51611 9.62419L4.27523 8.75702C3.8857 8.86522 3.61611 9.2199 3.61611 9.62419H4.51611ZM34.5161 9.62419H35.4161C35.4161 9.2199 35.1465 8.86522 34.757 8.75702L34.5161 9.62419ZM34.5161 13.7909V14.6909C35.0132 14.6909 35.4161 14.2879 35.4161 13.7909H34.5161ZM4.51611 13.7909H3.61611C3.61611 14.2879 4.01906 14.6909 4.51611 14.6909V13.7909ZM19.5161 5.45752L19.757 4.59035C19.5994 4.54657 19.4328 4.54657 19.2752 4.59035L19.5161 5.45752ZM8.74945 13.7909C8.74945 13.2938 8.3465 12.8909 7.84945 12.8909C7.35239 12.8909 6.94945 13.2938 6.94945 13.7909H8.74945ZM15.4161 13.7909C15.4161 13.2938 15.0132 12.8909 14.5161 12.8909C14.0191 12.8909 13.6161 13.2938 13.6161 13.7909H15.4161ZM13.6161 28.7909C13.6161 29.2879 14.0191 29.6909 14.5161 29.6909C15.0132 29.6909 15.4161 29.2879 15.4161 28.7909H13.6161ZM25.4161 13.7909C25.4161 13.2938 25.0132 12.8909 24.5161 12.8909C24.0191 12.8909 23.6161 13.2938 23.6161 13.7909H25.4161ZM23.6161 28.7909C23.6161 29.2879 24.0191 29.6909 24.5161 29.6909C25.0132 29.6909 25.4161 29.2879 25.4161 28.7909H23.6161ZM32.0828 13.7909C32.0828 13.2938 31.6798 12.8909 31.1828 12.8909C30.6857 12.8909 30.2828 13.2938 30.2828 13.7909H32.0828ZM7.84945 28.8228L7.9043 29.7212L7.84945 28.8228ZM31.1828 28.8228L31.1279 29.7212L31.1828 28.8228ZM9.84945 29.6909H29.1828V27.8909H9.84945V29.6909ZM33.6161 34.1242V35.4575H35.4161V34.1242H33.6161ZM34.5161 34.5575H4.51611V36.3575H34.5161V34.5575ZM5.41611 35.4575V34.1242H3.61611V35.4575H5.41611ZM35.4161 34.1242C35.4161 33.2056 35.4168 32.4626 35.3677 31.8616C35.3177 31.2501 35.2118 30.7068 34.9547 30.2023L33.3509 31.0195C33.4571 31.228 33.5328 31.508 33.5737 32.0081C33.6154 32.5188 33.6161 33.1759 33.6161 34.1242H35.4161ZM32.2875 29.9561C32.7454 30.1894 33.1176 30.5616 33.3509 31.0195L34.9547 30.2023C34.5488 29.4057 33.9012 28.7581 33.1047 28.3523L32.2875 29.9561ZM5.41611 34.1242C5.41611 33.1759 5.41681 32.5188 5.45854 32.0081C5.4994 31.508 5.5751 31.228 5.68133 31.0195L4.07752 30.2023C3.82044 30.7068 3.71448 31.2501 3.66452 31.8616C3.61541 32.4626 3.61611 33.2056 3.61611 34.1242H5.41611ZM5.92755 28.3523C5.131 28.7581 4.48338 29.4057 4.07752 30.2023L5.68133 31.0195C5.91462 30.5616 6.28688 30.1894 6.74474 29.9561L5.92755 28.3523ZM33.6161 9.62419V13.7909H35.4161V9.62419H33.6161ZM34.5161 12.8909H4.51611V14.6909H34.5161V12.8909ZM5.41611 13.7909V9.62419H3.61611V13.7909H5.41611ZM4.75699 10.4914L19.757 6.32469L19.2752 4.59035L4.27523 8.75702L4.75699 10.4914ZM19.2752 6.32469L34.2752 10.4914L34.757 8.75702L19.757 4.59035L19.2752 6.32469ZM13.6161 13.7909V28.7909H15.4161V13.7909H13.6161ZM23.6161 13.7909V28.7909H25.4161V13.7909H23.6161ZM6.94945 13.7909V28.8228H8.74945V13.7909H6.94945ZM9.84945 27.8909C9.02945 27.8909 8.35206 27.8905 7.7946 27.9245L7.9043 29.7212C8.39444 29.6912 9.00853 29.6909 9.84945 29.6909V27.8909ZM7.7946 27.9245C7.09575 27.9672 6.48657 28.0674 5.92755 28.3523L6.74474 29.9561C6.97742 29.8375 7.29577 29.7583 7.9043 29.7212L7.7946 27.9245ZM30.2828 13.7909V28.8228H32.0828V13.7909H30.2828ZM29.1828 29.6909C30.0237 29.6909 30.6378 29.6912 31.1279 29.7212L31.2376 27.9245C30.6802 27.8905 30.0028 27.8909 29.1828 27.8909V29.6909ZM31.1279 29.7212C31.7365 29.7583 32.0548 29.8375 32.2875 29.9561L33.1047 28.3523C32.5457 28.0674 31.9365 27.9672 31.2376 27.9245L31.1279 29.7212Z" fill="#333333"/>
</svg>
