<svg width="40" height="40" viewBox="0 0 40 40" fill="none" xmlns="http://www.w3.org/2000/svg">
<path d="M26.0921 14.4103H26.1088M17.7588 12.7437H17.7755M12.7588 19.4103H12.7755M20.2588 35.2437C11.9745 35.2437 5.25879 28.5279 5.25879 20.2437C5.25879 11.9594 11.9745 5.24365 20.2588 5.24365C28.5431 5.24365 35.2588 11.9594 35.2588 20.2437C35.2588 23.0051 33.0202 25.2437 30.2588 25.2437H29.2588C28.6395 25.2437 28.3298 25.2437 28.0707 25.2847C26.6444 25.5106 25.5257 26.6292 25.2998 28.0555C25.2588 28.3146 25.2588 28.6243 25.2588 29.2437V30.2437C25.2588 33.0051 23.0202 35.2437 20.2588 35.2437ZM26.9255 14.4103C26.9255 14.8706 26.5524 15.2437 26.0921 15.2437C25.6319 15.2437 25.2588 14.8706 25.2588 14.4103C25.2588 13.9501 25.6319 13.577 26.0921 13.577C26.5524 13.577 26.9255 13.9501 26.9255 14.4103ZM18.5921 12.7437C18.5921 13.2039 18.219 13.577 17.7588 13.577C17.2986 13.577 16.9255 13.2039 16.9255 12.7437C16.9255 12.2834 17.2986 11.9103 17.7588 11.9103C18.219 11.9103 18.5921 12.2834 18.5921 12.7437ZM13.5921 19.4103C13.5921 19.8706 13.219 20.2437 12.7588 20.2437C12.2986 20.2437 11.9255 19.8706 11.9255 19.4103C11.9255 18.9501 12.2986 18.577 12.7588 18.577C13.219 18.577 13.5921 18.9501 13.5921 19.4103Z" stroke="#333333" stroke-width="1.8" stroke-linecap="round" stroke-linejoin="round"/>
</svg>
