<svg width="24" height="24" viewBox="0 0 24 24" fill="none" xmlns="http://www.w3.org/2000/svg">
<path fill-rule="evenodd" clip-rule="evenodd" d="M17 11C17 14.3137 14.3137 17 11 17C7.68629 17 5 14.3137 5 11C5 7.68629 7.68629 5 11 5C14.3137 5 17 7.68629 17 11ZM16.0305 17.4447C15.9591 17.3734 15.8461 17.3665 15.7651 17.4266C14.4341 18.4152 12.7853 19 11 19C6.58172 19 3 15.4183 3 11C3 6.58172 6.58172 3 11 3C15.4183 3 19 6.58172 19 11C19 12.7853 18.4152 14.4341 17.4266 15.7651C17.3665 15.8461 17.3734 15.9591 17.4447 16.0305L21.5657 20.1515C21.6438 20.2296 21.6438 20.3562 21.5657 20.4343L20.4343 21.5657C20.3562 21.6438 20.2296 21.6438 20.1515 21.5657L16.0305 17.4447Z" fill="#333333"/>
</svg>
