<svg width="40" height="40" viewBox="0 0 40 40" fill="none" xmlns="http://www.w3.org/2000/svg">
<path d="M38.4593 19.5206C38.4494 19.4271 38.4185 19.3371 38.369 19.2572C38.3195 19.1774 38.2526 19.1097 38.1733 19.0592C38.094 19.0088 38.0044 18.9768 37.9111 18.9658C37.8178 18.9548 37.7231 18.965 37.6343 18.9956C32.9901 20.6335 27.9747 20.911 23.178 19.7956C25.0988 19.1939 26.7793 17.9985 27.9776 16.3812C29.1759 14.764 29.8304 12.8083 29.8468 10.7956C29.8481 10.7123 29.8327 10.6295 29.8016 10.5523C29.7705 10.475 29.7242 10.4047 29.6655 10.3456C29.5429 10.232 29.3827 10.1675 29.2155 10.1643C27.1259 10.1916 25.1033 10.9054 23.4593 12.1956C23.2134 10.1049 22.284 8.15388 20.8155 6.64557C20.7573 6.58604 20.6878 6.53874 20.6111 6.50645C20.5343 6.47415 20.4519 6.45752 20.3687 6.45752C20.2854 6.45752 20.203 6.47415 20.1263 6.50645C20.0495 6.53874 19.98 6.58604 19.9218 6.64557C18.46 8.14175 17.5291 10.076 17.2718 12.1518C15.638 10.888 13.6372 10.1904 11.5718 10.1643C11.4043 10.1657 11.2435 10.2304 11.1218 10.3456C11.0631 10.4047 11.0169 10.475 10.9857 10.5523C10.9546 10.6295 10.9392 10.7123 10.9405 10.7956C10.9575 12.8073 11.6114 14.7619 12.8084 16.3789C14.0054 17.9958 15.6839 19.192 17.603 19.7956C12.8104 20.9082 7.79977 20.6307 3.1593 18.9956C3.07044 18.965 2.97583 18.9548 2.88251 18.9658C2.78918 18.9768 2.69954 19.0088 2.62026 19.0592C2.54098 19.1097 2.47409 19.1774 2.42458 19.2572C2.37507 19.3371 2.34421 19.4271 2.3343 19.5206C2.2718 19.9331 1.3843 29.5831 7.6718 32.6456C7.77061 32.6939 7.88043 32.7153 7.99017 32.7077C8.09991 32.7 8.20568 32.6635 8.2968 32.6018C8.2968 32.6018 10.7343 31.0268 15.7968 31.8393C16.1905 31.8831 19.0843 32.1331 20.3905 30.9893C21.703 32.1331 24.5968 31.8831 25.0218 31.8393C30.0218 31.0331 32.4593 32.5768 32.5218 32.6018C32.6235 32.6702 32.743 32.7071 32.8655 32.7081C32.9608 32.7085 33.0548 32.6871 33.1405 32.6456C39.4093 29.5831 38.5218 19.9331 38.4593 19.5206ZM19.1905 19.9768C19.1545 19.8489 19.1397 19.7158 19.1468 19.5831V19.4581C19.1512 19.3753 19.1659 19.2934 19.1905 19.2143C19.2612 18.9907 19.3933 18.7914 19.5718 18.6393L19.6093 18.6018C19.7895 18.4584 20.0058 18.3676 20.2343 18.3393C20.3402 18.327 20.4472 18.327 20.553 18.3393C20.6567 18.3539 20.7578 18.3834 20.853 18.4268C20.9582 18.472 21.057 18.5308 21.1468 18.6018C21.2772 18.7045 21.3851 18.833 21.4636 18.9792C21.5421 19.1255 21.5896 19.2864 21.603 19.4518V19.5831C21.6051 19.7195 21.5818 19.8552 21.5343 19.9831C21.448 20.2265 21.2884 20.4372 21.0774 20.5863C20.8664 20.7353 20.6145 20.8153 20.3562 20.8153C20.0979 20.8153 19.8459 20.7353 19.635 20.5863C19.424 20.4372 19.2644 20.2265 19.178 19.9831L19.1905 19.9768ZM26.1655 16.5643C25.1969 17.5376 24.0001 18.253 22.6843 18.6456C22.6843 18.5768 22.6155 18.5143 22.5843 18.4456C22.5723 18.4132 22.5577 18.3818 22.5405 18.3518C22.4728 18.2346 22.3977 18.1219 22.3155 18.0143V17.9706C22.4814 17.6841 22.6296 17.3877 22.7593 17.0831C22.7593 17.0331 22.803 16.9831 22.828 16.9268C22.955 16.6189 23.0635 16.3038 23.153 15.9831V15.9143C23.3498 15.257 23.4735 14.58 23.5218 13.8956C23.5188 13.8602 23.5188 13.8247 23.5218 13.7893C24.8813 12.4537 26.6613 11.63 28.5593 11.4581C28.3865 13.3886 27.5389 15.1966 26.1655 16.5643V16.5643ZM20.3968 8.02057C21.6225 9.51838 22.2858 11.3977 22.2718 13.3331V13.5143C22.2647 13.8112 22.2417 14.1074 22.203 14.4018V14.5393C22.1646 14.8192 22.1103 15.0968 22.0405 15.3706C22.0405 15.4206 22.0405 15.4706 21.9968 15.5268C21.9218 15.8018 21.8343 16.0706 21.7343 16.3331C21.7343 16.3706 21.7343 16.4081 21.6905 16.4518C21.578 16.7143 21.4655 16.9768 21.328 17.2331V17.2643L21.1468 17.2018L21.0218 17.1706C20.9231 17.1438 20.823 17.1229 20.7218 17.1081C20.5145 17.0792 20.3041 17.0792 20.0968 17.1081C19.9809 17.1177 19.866 17.1365 19.753 17.1643L19.6655 17.1956C19.5843 17.1956 19.5093 17.2393 19.4343 17.2706C19.2962 17.0069 19.1731 16.7356 19.0655 16.4581C19.0463 16.4218 19.0296 16.3842 19.0155 16.3456C18.9155 16.0789 18.828 15.8039 18.753 15.5206C18.7348 15.4696 18.7201 15.4174 18.7093 15.3643C18.6296 15.0787 18.567 14.7886 18.5218 14.4956C18.5187 14.4519 18.5187 14.408 18.5218 14.3643C18.4834 14.0636 18.4604 13.7611 18.453 13.4581C18.4562 13.4165 18.4562 13.3747 18.453 13.3331C18.4557 11.3887 19.144 9.50753 20.3968 8.02057V8.02057ZM12.2343 11.4581C14.1126 11.6252 15.877 12.4302 17.2343 13.7393V13.8393C17.2466 14.1742 17.2779 14.508 17.328 14.8393V14.9081C17.3832 15.2203 17.4563 15.5292 17.5468 15.8331C17.5564 15.8796 17.5689 15.9256 17.5843 15.9706C17.67 16.291 17.7743 16.6061 17.8968 16.9143C17.8968 16.9706 17.9405 17.0268 17.9655 17.0893C18.0941 17.3902 18.2381 17.6844 18.3968 17.9706V18.0206C18.3132 18.1236 18.2399 18.2345 18.178 18.3518C18.161 18.3797 18.1463 18.4089 18.1343 18.4393C18.0994 18.5021 18.0681 18.5667 18.0405 18.6331C16.4725 18.1439 15.0843 17.2016 14.051 15.9247C13.0178 14.6478 12.3856 13.0937 12.2343 11.4581V11.4581ZM32.8593 31.3768C31.9718 30.9268 29.3343 29.8831 24.8655 30.6081C23.728 30.7206 21.1718 30.6581 21.0155 29.7018C21.0155 29.5361 20.9497 29.3771 20.8325 29.2599C20.7153 29.1427 20.5563 29.0768 20.3905 29.0768C20.2248 29.0768 20.0658 29.1427 19.9486 29.2599C19.8314 29.3771 19.7655 29.5361 19.7655 29.7018C19.6218 30.5706 17.378 30.7518 15.9468 30.6081C11.4468 29.8831 8.80304 30.9268 7.91554 31.3768C3.65305 29.0518 3.4468 22.6768 3.54055 20.4393C8.31042 21.9653 13.4104 22.1363 18.2718 20.9331L18.3343 21.0268L18.4093 21.1268C18.4588 21.195 18.5154 21.2579 18.578 21.3143L18.6468 21.3893C18.7284 21.4709 18.8162 21.5461 18.9093 21.6143H18.9593L19.2093 21.7706L19.3155 21.8206C19.389 21.8535 19.4641 21.8827 19.5405 21.9081L19.6593 21.9518L19.8968 22.0081H20.0093C20.2513 22.0497 20.4986 22.0497 20.7405 22.0081H20.853L21.0905 21.9518L21.2218 21.9081L21.428 21.8206L21.553 21.7643L21.7468 21.6456L21.853 21.5768C21.9384 21.513 22.0198 21.4442 22.0968 21.3706L22.2218 21.2331L22.328 21.1143L22.4405 20.9581L22.4843 20.8893C27.3598 22.117 32.4812 21.959 37.2718 20.4331C37.328 22.6706 37.1343 29.0393 32.8593 31.3706V31.3768Z" fill="#333333" stroke="#333333" stroke-width="0.5"/>
<path d="M23.0624 26.1188C22.9919 26.1821 22.9367 26.2605 22.901 26.3482C22.8652 26.4359 22.8499 26.5306 22.8561 26.6251C22.8621 26.7194 22.8894 26.8112 22.9359 26.8935C22.9825 26.9757 23.0471 27.0464 23.1249 27.1001C24.9999 28.3501 26.7374 29.0126 28.3249 29.0126C28.832 29.0137 29.3369 28.9443 29.8249 28.8063C30.599 28.5649 31.3157 28.1683 31.9315 27.6407C32.5472 27.1131 33.0489 26.4655 33.4061 25.7376C33.4639 25.6144 33.4799 25.4757 33.4517 25.3426C33.4235 25.2095 33.3527 25.0892 33.2499 25.0001C29.6499 21.8751 25.0124 24.3751 23.0624 26.1188V26.1188ZM29.4686 27.6063C28.0624 28.0001 26.4124 27.6063 24.5561 26.5313C25.9374 25.5376 29.2436 23.6251 32.0561 25.6376C31.4608 26.5857 30.5412 27.2854 29.4686 27.6063V27.6063ZM7.46864 25.0001C7.3686 25.0884 7.29947 25.2064 7.27135 25.3369C7.24324 25.4673 7.25762 25.6034 7.31239 25.7251C7.66958 26.453 8.17134 27.1006 8.78706 27.6282C9.40279 28.1558 10.1196 28.5524 10.8936 28.7938C11.3817 28.9314 11.8865 29.0008 12.3936 29.0001C13.9811 29.0001 15.7249 28.3751 17.5936 27.0876C17.6745 27.0379 17.743 26.9704 17.7939 26.8902C17.8448 26.8101 17.8768 26.7194 17.8874 26.6251C17.8936 26.5306 17.8783 26.4359 17.8425 26.3482C17.8068 26.2605 17.7516 26.1821 17.6811 26.1188C15.7061 24.3751 11.0686 21.8751 7.46864 25.0001ZM11.2186 27.5938C10.1668 27.2609 9.26893 26.5626 8.68739 25.6251C11.5061 23.5813 14.7936 25.5063 16.1874 26.5126C14.3124 27.6376 12.6561 28.0001 11.2499 27.6063L11.2186 27.5938Z" fill="#333333" stroke="#333333" stroke-width="0.5"/>
</svg>
