<svg width="40" height="40" viewBox="0 0 40 40" fill="none" xmlns="http://www.w3.org/2000/svg">
<path d="M4.99951 23.577V15.2437C4.99951 9.72081 9.47666 5.24365 14.9995 5.24365H15.3917C20.6979 5.24365 24.9995 9.54523 24.9995 14.8515C24.9995 15.9886 25.9213 16.9103 27.0583 16.9103H29.9995C32.7609 16.9103 34.9995 19.1489 34.9995 21.9103V27.2437C34.9995 30.0439 34.9995 31.444 34.4545 32.5136C33.9752 33.4544 33.2103 34.2193 32.2695 34.6987C31.1999 35.2437 29.7998 35.2437 26.9995 35.2437H12.9995C10.1992 35.2437 8.79912 35.2437 7.72956 34.6987C6.78875 34.2193 6.02385 33.4544 5.54448 32.5136C4.99951 31.444 4.99951 30.0439 4.99951 27.2437V23.577ZM4.99951 23.577H34.9995M11.6662 23.577V28.577M16.6662 23.577V28.577M21.6662 23.577V28.577M28.3328 23.577V28.577" stroke="#333333" stroke-width="1.8" stroke-linecap="round" stroke-linejoin="round"/>
</svg>
